<svg width="80" height="31" viewBox="0 0 80 31" fill="none" xmlns="http://www.w3.org/2000/svg">
<mask id="path-1-outside-1_11_359" maskUnits="userSpaceOnUse" x="0" y="0" width="80" height="31" fill="black">
<rect fill="white" width="80" height="31"/>
<path d="M18.9375 20.7656C18.9375 22.1927 18.6042 23.3958 17.9375 24.375C17.2708 25.3438 16.3542 26.0781 15.1875 26.5781C14.0312 27.0677 12.7188 27.3125 11.25 27.3125C9.78125 27.3125 8.46354 27.0677 7.29688 26.5781C6.13021 26.0781 5.20833 25.3438 4.53125 24.375C3.85417 23.3958 3.51562 22.1927 3.51562 20.7656C3.51562 19.8073 3.70833 18.9427 4.09375 18.1719C4.47917 17.3906 5.01562 16.724 5.70312 16.1719C6.40104 15.6094 7.21875 15.1823 8.15625 14.8906C9.09375 14.5885 10.1146 14.4375 11.2188 14.4375C12.6979 14.4375 14.0208 14.6979 15.1875 15.2188C16.3542 15.7396 17.2708 16.474 17.9375 17.4219C18.6042 18.3698 18.9375 19.4844 18.9375 20.7656ZM14.4062 20.4688C14.4062 19.7708 14.2708 19.1719 14 18.6719C13.7396 18.1615 13.3698 17.7708 12.8906 17.5C12.4115 17.2292 11.8542 17.0938 11.2188 17.0938C10.5833 17.0938 10.026 17.2292 9.54688 17.5C9.06771 17.7708 8.69271 18.1615 8.42188 18.6719C8.16146 19.1719 8.03125 19.7708 8.03125 20.4688C8.03125 21.1562 8.16146 21.75 8.42188 22.25C8.69271 22.75 9.06771 23.1354 9.54688 23.4062C10.0365 23.6667 10.6042 23.7969 11.25 23.7969C11.8958 23.7969 12.4531 23.6667 12.9219 23.4062C13.401 23.1354 13.7656 22.75 14.0156 22.25C14.276 21.75 14.4062 21.1562 14.4062 20.4688ZM18.4531 10.2812C18.4531 11.4375 18.1458 12.4635 17.5312 13.3594C16.9167 14.2448 16.0625 14.9375 14.9688 15.4375C13.8854 15.9375 12.6458 16.1875 11.25 16.1875C9.84375 16.1875 8.59375 15.9375 7.5 15.4375C6.40625 14.9375 5.55208 14.2448 4.9375 13.3594C4.32292 12.4635 4.01562 11.4375 4.01562 10.2812C4.01562 8.90625 4.32292 7.75 4.9375 6.8125C5.5625 5.86458 6.41667 5.14583 7.5 4.65625C8.59375 4.16667 9.83333 3.92188 11.2188 3.92188C12.625 3.92188 13.8698 4.16667 14.9531 4.65625C16.0469 5.14583 16.901 5.86458 17.5156 6.8125C18.1406 7.75 18.4531 8.90625 18.4531 10.2812ZM13.9531 10.4844C13.9531 9.86979 13.8438 9.33854 13.625 8.89062C13.4062 8.43229 13.0938 8.07812 12.6875 7.82812C12.2917 7.57812 11.8021 7.45312 11.2188 7.45312C10.6562 7.45312 10.1719 7.57292 9.76562 7.8125C9.36979 8.05208 9.0625 8.40104 8.84375 8.85938C8.63542 9.30729 8.53125 9.84896 8.53125 10.4844C8.53125 11.099 8.63542 11.6406 8.84375 12.1094C9.0625 12.5677 9.375 12.9271 9.78125 13.1875C10.1875 13.4479 10.6771 13.5781 11.25 13.5781C11.8229 13.5781 12.3073 13.4479 12.7031 13.1875C13.1094 12.9271 13.4167 12.5677 13.625 12.1094C13.8438 11.6406 13.9531 11.099 13.9531 10.4844ZM32.9531 4.20312V27H28.4531V9.39062L23.0469 11.1094V7.5625L32.4688 4.20312H32.9531ZM53.7812 4.25V27H49.1094V4.25H53.7812ZM76.2031 15.1094V24.125C75.849 24.5521 75.3021 25.0156 74.5625 25.5156C73.8229 26.0052 72.8698 26.4271 71.7031 26.7812C70.5365 27.1354 69.125 27.3125 67.4688 27.3125C66 27.3125 64.6615 27.0729 63.4531 26.5938C62.2448 26.1042 61.2031 25.3906 60.3281 24.4531C59.4635 23.5156 58.7969 22.3698 58.3281 21.0156C57.8594 19.651 57.625 18.0938 57.625 16.3438V14.9219C57.625 13.1719 57.849 11.6146 58.2969 10.25C58.7552 8.88542 59.4062 7.73438 60.25 6.79688C61.0938 5.85938 62.099 5.14583 63.2656 4.65625C64.4323 4.16667 65.7292 3.92188 67.1562 3.92188C69.1354 3.92188 70.7604 4.24479 72.0312 4.89062C73.3021 5.52604 74.2708 6.41146 74.9375 7.54688C75.6146 8.67188 76.0312 9.96354 76.1875 11.4219H71.6406C71.526 10.651 71.3073 9.97917 70.9844 9.40625C70.6615 8.83333 70.1979 8.38542 69.5938 8.0625C69 7.73958 68.2292 7.57812 67.2812 7.57812C66.5 7.57812 65.8021 7.73958 65.1875 8.0625C64.5833 8.375 64.0729 8.83854 63.6562 9.45312C63.2396 10.0677 62.9219 10.8281 62.7031 11.7344C62.4844 12.6406 62.375 13.6927 62.375 14.8906V16.3438C62.375 17.5312 62.4896 18.5833 62.7188 19.5C62.9479 20.4062 63.2865 21.1719 63.7344 21.7969C64.1927 22.4115 64.7552 22.875 65.4219 23.1875C66.0885 23.5 66.8646 23.6562 67.75 23.6562C68.4896 23.6562 69.1042 23.5938 69.5938 23.4688C70.0938 23.3438 70.4948 23.1927 70.7969 23.0156C71.1094 22.8281 71.349 22.651 71.5156 22.4844V18.4531H67.2344V15.1094H76.2031Z"/>
</mask>
<path d="M18.9375 20.7656C18.9375 22.1927 18.6042 23.3958 17.9375 24.375C17.2708 25.3438 16.3542 26.0781 15.1875 26.5781C14.0312 27.0677 12.7188 27.3125 11.25 27.3125C9.78125 27.3125 8.46354 27.0677 7.29688 26.5781C6.13021 26.0781 5.20833 25.3438 4.53125 24.375C3.85417 23.3958 3.51562 22.1927 3.51562 20.7656C3.51562 19.8073 3.70833 18.9427 4.09375 18.1719C4.47917 17.3906 5.01562 16.724 5.70312 16.1719C6.40104 15.6094 7.21875 15.1823 8.15625 14.8906C9.09375 14.5885 10.1146 14.4375 11.2188 14.4375C12.6979 14.4375 14.0208 14.6979 15.1875 15.2188C16.3542 15.7396 17.2708 16.474 17.9375 17.4219C18.6042 18.3698 18.9375 19.4844 18.9375 20.7656ZM14.4062 20.4688C14.4062 19.7708 14.2708 19.1719 14 18.6719C13.7396 18.1615 13.3698 17.7708 12.8906 17.5C12.4115 17.2292 11.8542 17.0938 11.2188 17.0938C10.5833 17.0938 10.026 17.2292 9.54688 17.5C9.06771 17.7708 8.69271 18.1615 8.42188 18.6719C8.16146 19.1719 8.03125 19.7708 8.03125 20.4688C8.03125 21.1562 8.16146 21.75 8.42188 22.25C8.69271 22.75 9.06771 23.1354 9.54688 23.4062C10.0365 23.6667 10.6042 23.7969 11.25 23.7969C11.8958 23.7969 12.4531 23.6667 12.9219 23.4062C13.401 23.1354 13.7656 22.75 14.0156 22.25C14.276 21.75 14.4062 21.1562 14.4062 20.4688ZM18.4531 10.2812C18.4531 11.4375 18.1458 12.4635 17.5312 13.3594C16.9167 14.2448 16.0625 14.9375 14.9688 15.4375C13.8854 15.9375 12.6458 16.1875 11.25 16.1875C9.84375 16.1875 8.59375 15.9375 7.5 15.4375C6.40625 14.9375 5.55208 14.2448 4.9375 13.3594C4.32292 12.4635 4.01562 11.4375 4.01562 10.2812C4.01562 8.90625 4.32292 7.75 4.9375 6.8125C5.5625 5.86458 6.41667 5.14583 7.5 4.65625C8.59375 4.16667 9.83333 3.92188 11.2188 3.92188C12.625 3.92188 13.8698 4.16667 14.9531 4.65625C16.0469 5.14583 16.901 5.86458 17.5156 6.8125C18.1406 7.75 18.4531 8.90625 18.4531 10.2812ZM13.9531 10.4844C13.9531 9.86979 13.8438 9.33854 13.625 8.89062C13.4062 8.43229 13.0938 8.07812 12.6875 7.82812C12.2917 7.57812 11.8021 7.45312 11.2188 7.45312C10.6562 7.45312 10.1719 7.57292 9.76562 7.8125C9.36979 8.05208 9.0625 8.40104 8.84375 8.85938C8.63542 9.30729 8.53125 9.84896 8.53125 10.4844C8.53125 11.099 8.63542 11.6406 8.84375 12.1094C9.0625 12.5677 9.375 12.9271 9.78125 13.1875C10.1875 13.4479 10.6771 13.5781 11.25 13.5781C11.8229 13.5781 12.3073 13.4479 12.7031 13.1875C13.1094 12.9271 13.4167 12.5677 13.625 12.1094C13.8438 11.6406 13.9531 11.099 13.9531 10.4844ZM32.9531 4.20312V27H28.4531V9.39062L23.0469 11.1094V7.5625L32.4688 4.20312H32.9531ZM53.7812 4.25V27H49.1094V4.25H53.7812ZM76.2031 15.1094V24.125C75.849 24.5521 75.3021 25.0156 74.5625 25.5156C73.8229 26.0052 72.8698 26.4271 71.7031 26.7812C70.5365 27.1354 69.125 27.3125 67.4688 27.3125C66 27.3125 64.6615 27.0729 63.4531 26.5938C62.2448 26.1042 61.2031 25.3906 60.3281 24.4531C59.4635 23.5156 58.7969 22.3698 58.3281 21.0156C57.8594 19.651 57.625 18.0938 57.625 16.3438V14.9219C57.625 13.1719 57.849 11.6146 58.2969 10.25C58.7552 8.88542 59.4062 7.73438 60.25 6.79688C61.0938 5.85938 62.099 5.14583 63.2656 4.65625C64.4323 4.16667 65.7292 3.92188 67.1562 3.92188C69.1354 3.92188 70.7604 4.24479 72.0312 4.89062C73.3021 5.52604 74.2708 6.41146 74.9375 7.54688C75.6146 8.67188 76.0312 9.96354 76.1875 11.4219H71.6406C71.526 10.651 71.3073 9.97917 70.9844 9.40625C70.6615 8.83333 70.1979 8.38542 69.5938 8.0625C69 7.73958 68.2292 7.57812 67.2812 7.57812C66.5 7.57812 65.8021 7.73958 65.1875 8.0625C64.5833 8.375 64.0729 8.83854 63.6562 9.45312C63.2396 10.0677 62.9219 10.8281 62.7031 11.7344C62.4844 12.6406 62.375 13.6927 62.375 14.8906V16.3438C62.375 17.5312 62.4896 18.5833 62.7188 19.5C62.9479 20.4062 63.2865 21.1719 63.7344 21.7969C64.1927 22.4115 64.7552 22.875 65.4219 23.1875C66.0885 23.5 66.8646 23.6562 67.75 23.6562C68.4896 23.6562 69.1042 23.5938 69.5938 23.4688C70.0938 23.3438 70.4948 23.1927 70.7969 23.0156C71.1094 22.8281 71.349 22.651 71.5156 22.4844V18.4531H67.2344V15.1094H76.2031Z" fill="#ABB4E7" fill-opacity="0.2"/>
<path d="M17.9375 24.375L20.4088 26.0757L20.4131 26.0696L20.4173 26.0634L17.9375 24.375ZM15.1875 26.5781L16.3572 29.3407L16.3693 29.3356L15.1875 26.5781ZM7.29688 26.5781L6.11512 29.3356L6.12555 29.34L6.13602 29.3444L7.29688 26.5781ZM4.53125 24.375L2.06373 26.0813L2.06801 26.0875L2.07231 26.0936L4.53125 24.375ZM4.09375 18.1719L6.77703 19.5135L6.78062 19.5063L6.78417 19.4991L4.09375 18.1719ZM5.70312 16.1719L7.58153 18.511L7.5857 18.5077L5.70312 16.1719ZM8.15625 14.8906L9.04745 17.7552L9.06191 17.7507L9.07633 17.746L8.15625 14.8906ZM17.9375 17.4219L15.4836 19.1477L17.9375 17.4219ZM14 18.6719L11.3277 20.0353L11.3445 20.0682L11.3621 20.1007L14 18.6719ZM8.42188 18.6719L5.77183 17.2657L5.76644 17.2759L5.76113 17.2861L8.42188 18.6719ZM8.42188 22.25L5.76113 23.6358L5.77239 23.6574L5.784 23.6789L8.42188 22.25ZM9.54688 23.4062L8.0707 26.0179L8.10413 26.0368L8.13804 26.0549L9.54688 23.4062ZM12.9219 23.4062L14.3788 26.0287L14.3884 26.0234L14.398 26.0179L12.9219 23.4062ZM14.0156 22.25L11.3549 20.8642L11.3434 20.8862L11.3323 20.9084L14.0156 22.25ZM17.5312 13.3594L19.9957 15.07L20.0004 15.0633L20.0051 15.0565L17.5312 13.3594ZM14.9688 15.4375L13.7215 12.7091L13.7116 12.7136L14.9688 15.4375ZM4.9375 13.3594L2.4637 15.0565L2.46834 15.0633L2.47301 15.07L4.9375 13.3594ZM4.9375 6.8125L2.4329 5.16112L2.42856 5.16775L4.9375 6.8125ZM7.5 4.65625L6.27432 1.91803L6.26454 1.92246L7.5 4.65625ZM14.9531 4.65625L13.7177 7.39006L13.7275 7.39445L14.9531 4.65625ZM17.5156 6.8125L14.9984 8.44455L15.0088 8.46064L15.0195 8.4766L17.5156 6.8125ZM13.625 8.89062L10.9176 10.1828L10.9234 10.195L10.9293 10.2071L13.625 8.89062ZM12.6875 7.82812L11.0855 10.3646L11.1003 10.3739L11.1152 10.3831L12.6875 7.82812ZM9.76562 7.8125L8.24167 5.2284L8.22689 5.23712L8.21222 5.246L9.76562 7.8125ZM8.84375 8.85938L6.13631 7.56719L6.12988 7.58065L6.12359 7.59418L8.84375 8.85938ZM8.84375 12.1094L6.10232 13.3278L6.11881 13.3649L6.13631 13.4016L8.84375 12.1094ZM12.7031 13.1875L11.0841 10.6619L11.0691 10.6715L11.0543 10.6812L12.7031 13.1875ZM13.625 12.1094L10.9065 10.8407L10.9001 10.8543L10.8939 10.868L13.625 12.1094ZM15.9375 20.7656C15.9375 21.7157 15.7212 22.2996 15.4577 22.6866L20.4173 26.0634C21.4871 24.492 21.9375 22.6697 21.9375 20.7656H15.9375ZM15.4662 22.6743C15.1464 23.1389 14.6944 23.5256 14.0057 23.8207L16.3693 29.3356C18.0139 28.6307 19.3952 27.5486 20.4088 26.0757L15.4662 22.6743ZM14.0178 23.8156C13.2889 24.1242 12.3842 24.3125 11.25 24.3125V30.3125C13.0533 30.3125 14.7736 30.0112 16.3572 29.3407L14.0178 23.8156ZM11.25 24.3125C10.1165 24.3125 9.20254 24.1244 8.45773 23.8118L6.13602 29.3444C7.72455 30.011 9.44603 30.3125 11.25 30.3125V24.3125ZM8.47863 23.8207C7.78665 23.5241 7.32294 23.1325 6.99019 22.6564L2.07231 26.0936C3.09373 27.555 4.47376 28.6321 6.11512 29.3356L8.47863 23.8207ZM6.99877 22.6687C6.7326 22.2838 6.51562 21.7066 6.51562 20.7656H0.515625C0.515625 22.6789 0.975738 24.5079 2.06373 26.0813L6.99877 22.6687ZM6.51562 20.7656C6.51562 20.2202 6.62229 19.823 6.77703 19.5135L1.41047 16.8302C0.794372 18.0624 0.515625 19.3944 0.515625 20.7656H6.51562ZM6.78417 19.4991C6.97354 19.1153 7.23098 18.7925 7.58153 18.511L3.82472 13.8327C2.80027 14.6554 1.98479 15.666 1.40333 16.8446L6.78417 19.4991ZM7.5857 18.5077C7.96254 18.2039 8.43627 17.9453 9.04745 17.7552L7.26505 12.0261C6.00123 12.4192 4.83954 13.0148 3.82055 13.8361L7.5857 18.5077ZM9.07633 17.746C9.68297 17.5506 10.3896 17.4375 11.2188 17.4375V11.4375C9.83957 11.4375 8.50453 11.6265 7.23617 12.0352L9.07633 17.746ZM11.2188 17.4375C12.3425 17.4375 13.2387 17.6341 13.9645 17.9582L16.4105 12.4793C14.8029 11.7617 13.0533 11.4375 11.2188 11.4375V17.4375ZM13.9645 17.9582C14.6891 18.2816 15.1596 18.687 15.4836 19.1477L20.3914 15.6961C19.3821 14.2609 18.0192 13.1975 16.4105 12.4793L13.9645 17.9582ZM15.4836 19.1477C15.7576 19.5372 15.9375 20.0339 15.9375 20.7656H21.9375C21.9375 18.9348 21.4508 17.2024 20.3914 15.6961L15.4836 19.1477ZM17.4062 20.4688C17.4062 19.384 17.1946 18.2708 16.6379 17.243L11.3621 20.1007C11.3471 20.0729 11.4062 20.1577 11.4062 20.4688H17.4062ZM16.6723 17.3085C16.1559 16.2963 15.3803 15.4612 14.3668 14.8883L11.4145 20.1117C11.4088 20.1085 11.3985 20.1021 11.3857 20.0921C11.3727 20.082 11.3601 20.0705 11.3487 20.0585C11.3241 20.0325 11.3193 20.0188 11.3277 20.0353L16.6723 17.3085ZM14.3668 14.8883C13.3718 14.3259 12.2907 14.0938 11.2188 14.0938V20.0938C11.3231 20.0938 11.3816 20.1048 11.4049 20.1105C11.4262 20.1157 11.4255 20.118 11.4145 20.1117L14.3668 14.8883ZM11.2188 14.0938C10.1468 14.0938 9.06567 14.3259 8.0707 14.8883L11.023 20.1117C11.012 20.118 11.0113 20.1157 11.0326 20.1105C11.0559 20.1048 11.1144 20.0938 11.2188 20.0938V14.0938ZM8.0707 14.8883C7.06782 15.4552 6.29691 16.2762 5.77183 17.2657L11.0719 20.078C11.0794 20.0639 11.0835 20.0584 11.0829 20.0592C11.0822 20.0602 11.0781 20.0657 11.0704 20.0737C11.0627 20.0818 11.0535 20.09 11.0438 20.0975C11.0342 20.105 11.0267 20.1096 11.023 20.1117L8.0707 14.8883ZM5.76113 17.2861C5.23096 18.304 5.03125 19.4012 5.03125 20.4688H11.0312C11.0312 20.1405 11.092 20.0397 11.0826 20.0577L5.76113 17.2861ZM5.03125 20.4688C5.03125 21.5341 5.23407 22.6238 5.76113 23.6358L11.0826 20.8642C11.0826 20.8642 11.0825 20.8639 11.0822 20.8633C11.0819 20.8628 11.0815 20.8619 11.081 20.8607C11.0799 20.8582 11.0783 20.8542 11.0762 20.8484C11.0721 20.8369 11.0658 20.817 11.0593 20.7871C11.046 20.7266 11.0312 20.624 11.0312 20.4688H5.03125ZM5.784 23.6789C6.31391 24.6571 7.08405 25.4603 8.0707 26.0179L11.023 20.7946C11.0229 20.7945 11.024 20.7951 11.0262 20.7965C11.0284 20.798 11.0313 20.8 11.0348 20.8027C11.042 20.8083 11.0496 20.8149 11.0564 20.822C11.0633 20.829 11.0672 20.8341 11.0683 20.8356C11.0693 20.837 11.0661 20.8329 11.0598 20.8211L5.784 23.6789ZM8.13804 26.0549C9.12778 26.5813 10.194 26.7969 11.25 26.7969V20.7969C11.1287 20.7969 11.052 20.7847 11.0105 20.7751C10.9708 20.766 10.9562 20.7579 10.9557 20.7576L8.13804 26.0549ZM11.25 26.7969C12.3018 26.7969 13.3816 26.5827 14.3788 26.0287L11.4649 20.7838C11.4894 20.7702 11.4959 20.7718 11.4698 20.7779C11.4414 20.7845 11.372 20.7969 11.25 20.7969V26.7969ZM14.398 26.0179C15.4056 25.4485 16.1863 24.6168 16.6989 23.5916L11.3323 20.9084C11.332 20.9091 11.3446 20.8849 11.3753 20.8525C11.4063 20.8197 11.4346 20.8008 11.4457 20.7946L14.398 26.0179ZM16.6764 23.6358C17.2034 22.6238 17.4062 21.5341 17.4062 20.4688H11.4062C11.4062 20.624 11.3915 20.7266 11.3782 20.7871C11.3717 20.817 11.3654 20.8369 11.3613 20.8484C11.3592 20.8542 11.3576 20.8582 11.3565 20.8607C11.356 20.8619 11.3556 20.8628 11.3553 20.8633C11.355 20.8639 11.3549 20.8642 11.3549 20.8642L16.6764 23.6358ZM15.4531 10.2812C15.4531 10.8727 15.3068 11.2988 15.0574 11.6622L20.0051 15.0565C20.9849 13.6283 21.4531 12.0023 21.4531 10.2812H15.4531ZM15.0668 11.6487C14.7937 12.0421 14.3836 12.4064 13.7215 12.7091L16.216 18.1659C17.7414 17.4686 19.0396 16.4475 19.9957 15.07L15.0668 11.6487ZM13.7116 12.7136C13.0838 13.0034 12.2849 13.1875 11.25 13.1875V19.1875C13.0068 19.1875 14.687 18.8716 16.2259 18.1614L13.7116 12.7136ZM11.25 13.1875C10.2019 13.1875 9.38877 13.0023 8.74728 12.7091L6.25272 18.1659C7.79873 18.8727 9.4856 19.1875 11.25 19.1875V13.1875ZM8.74728 12.7091C8.0851 12.4064 7.67501 12.0421 7.40199 11.6487L2.47301 15.07C3.42916 16.4475 4.7274 17.4686 6.25272 18.1659L8.74728 12.7091ZM7.4113 11.6622C7.162 11.2988 7.01562 10.8727 7.01562 10.2812H1.01562C1.01562 12.0023 1.48384 13.6283 2.4637 15.0565L7.4113 11.6622ZM7.01562 10.2812C7.01562 9.3574 7.21821 8.8054 7.44644 8.45725L2.42856 5.16775C1.42762 6.6946 1.01562 8.4551 1.01562 10.2812H7.01562ZM7.44209 8.46388C7.73981 8.01234 8.14346 7.65758 8.73546 7.39004L6.26454 1.92246C4.68987 2.63408 3.38519 3.71683 2.43291 5.16112L7.44209 8.46388ZM8.72567 7.39445C9.37821 7.10236 10.1902 6.92188 11.2188 6.92188V0.921875C9.47645 0.921875 7.80929 1.23097 6.27433 1.91805L8.72567 7.39445ZM11.2188 6.92188C12.2759 6.92188 13.0871 7.10506 13.7177 7.39004L16.1886 1.92246C14.6525 1.22827 12.9741 0.921875 11.2188 0.921875V6.92188ZM13.7275 7.39445C14.3267 7.66266 14.7181 8.01223 14.9984 8.44455L20.0329 5.18045C19.084 3.71694 17.7671 2.629 16.1788 1.91805L13.7275 7.39445ZM15.0195 8.4766C15.2498 8.82204 15.4531 9.36678 15.4531 10.2812H21.4531C21.4531 8.44572 21.0315 6.67796 20.0118 5.1484L15.0195 8.4766ZM16.9531 10.4844C16.9531 9.51764 16.7808 8.5163 16.3207 7.57412L10.9293 10.2071C10.9067 10.1608 10.9531 10.2219 10.9531 10.4844H16.9531ZM16.3324 7.59844C15.8817 6.65397 15.1904 5.84586 14.2598 5.27315L11.1152 10.3831C11.0682 10.3542 11.0191 10.3137 10.977 10.2661C10.936 10.2196 10.919 10.1859 10.9176 10.1828L16.3324 7.59844ZM14.2895 5.29166C13.3088 4.67227 12.23 4.45312 11.2188 4.45312V10.4531C11.2977 10.4531 11.3129 10.4617 11.2813 10.4536C11.2459 10.4446 11.1733 10.42 11.0855 10.3646L14.2895 5.29166ZM11.2188 4.45312C10.224 4.45312 9.19148 4.66826 8.24167 5.2284L11.2896 10.3966C11.2602 10.414 11.2322 10.4274 11.2075 10.4373C11.183 10.4472 11.1644 10.4526 11.1538 10.4552C11.1327 10.4605 11.15 10.4531 11.2188 10.4531V4.45312ZM8.21222 5.246C7.26707 5.81806 6.58157 6.63425 6.13631 7.56719L11.5512 10.1516C11.5521 10.1496 11.5353 10.1848 11.4898 10.2365C11.4428 10.2899 11.3834 10.34 11.319 10.379L8.21222 5.246ZM6.12359 7.59418C5.68609 8.53481 5.53125 9.53239 5.53125 10.4844H11.5312C11.5312 10.1655 11.5847 10.0798 11.5639 10.1246L6.12359 7.59418ZM5.53125 10.4844C5.53125 11.437 5.69318 12.4072 6.10232 13.3278L11.5852 10.891C11.5777 10.874 11.5312 10.7609 11.5312 10.4844H5.53125ZM6.13631 13.4016C6.58264 14.3367 7.26016 15.1349 8.16225 15.7131L11.4002 10.6619C11.4343 10.6837 11.4724 10.7155 11.506 10.7541C11.5389 10.7919 11.5516 10.8181 11.5512 10.8172L6.13631 13.4016ZM8.16225 15.7131C9.13591 16.3373 10.2122 16.5781 11.25 16.5781V10.5781C11.1905 10.5781 11.1871 10.5714 11.2242 10.5813C11.2646 10.592 11.329 10.6162 11.4002 10.6619L8.16225 15.7131ZM11.25 16.5781C12.285 16.5781 13.3724 16.3382 14.352 15.6938L11.0543 10.6812C11.139 10.6255 11.2155 10.5964 11.2642 10.5833C11.309 10.5713 11.31 10.5781 11.25 10.5781V16.5781ZM14.3221 15.7131C15.2368 15.1268 15.9195 14.3114 16.3561 13.3508L10.8939 10.868C10.8986 10.8576 10.9176 10.8205 10.9582 10.773C10.9994 10.7248 11.045 10.6869 11.0841 10.6619L14.3221 15.7131ZM16.3435 13.378C16.7793 12.4443 16.9531 11.4558 16.9531 10.4844H10.9531C10.9531 10.7421 10.9082 10.837 10.9065 10.8407L16.3435 13.378ZM32.9531 4.20312H35.9531V1.20312H32.9531V4.20312ZM32.9531 27V30H35.9531V27H32.9531ZM28.4531 27H25.4531V30H28.4531V27ZM28.4531 9.39062H31.4531V5.28891L27.5442 6.53163L28.4531 9.39062ZM23.0469 11.1094H20.0469V15.2111L23.9558 13.9684L23.0469 11.1094ZM23.0469 7.5625L22.0394 4.73674L20.0469 5.44716V7.5625H23.0469ZM32.4688 4.20312V1.20312H31.9499L31.4612 1.37737L32.4688 4.20312ZM29.9531 4.20312V27H35.9531V4.20312H29.9531ZM32.9531 24H28.4531V30H32.9531V24ZM31.4531 27V9.39062H25.4531V27H31.4531ZM27.5442 6.53163L22.1379 8.25038L23.9558 13.9684L29.3621 12.2496L27.5442 6.53163ZM26.0469 11.1094V7.5625H20.0469V11.1094H26.0469ZM24.0544 10.3883L33.4763 7.02888L31.4612 1.37737L22.0394 4.73674L24.0544 10.3883ZM32.4688 7.20312H32.9531V1.20312H32.4688V7.20312ZM53.7812 4.25H56.7812V1.25H53.7812V4.25ZM53.7812 27V30H56.7812V27H53.7812ZM49.1094 27H46.1094V30H49.1094V27ZM49.1094 4.25V1.25H46.1094V4.25H49.1094ZM50.7812 4.25V27H56.7812V4.25H50.7812ZM53.7812 24H49.1094V30H53.7812V24ZM52.1094 27V4.25H46.1094V27H52.1094ZM49.1094 7.25H53.7812V1.25H49.1094V7.25ZM76.2031 15.1094H79.2031V12.1094H76.2031V15.1094ZM76.2031 24.125L78.5124 26.04L79.2031 25.2071V24.125H76.2031ZM74.5625 25.5156L76.2185 28.0172L76.2306 28.0091L76.2427 28.001L74.5625 25.5156ZM71.7031 26.7812L70.8317 23.9106L71.7031 26.7812ZM63.4531 26.5938L62.3266 29.3742L62.3369 29.3784L62.3472 29.3825L63.4531 26.5938ZM60.3281 24.4531L58.1228 26.4869L58.1288 26.4935L58.135 26.5001L60.3281 24.4531ZM58.3281 21.0156L55.4908 21.9903L55.4932 21.997L58.3281 21.0156ZM58.2969 10.25L55.453 9.29481L55.4497 9.30458L55.4465 9.31438L58.2969 10.25ZM72.0312 4.89062L70.6721 7.56508L70.6808 7.56952L70.6896 7.57391L72.0312 4.89062ZM74.9375 7.54688L72.3505 9.06586L72.3587 9.07991L72.3671 9.09386L74.9375 7.54688ZM76.1875 11.4219V14.4219H79.5261L79.1704 11.1023L76.1875 11.4219ZM71.6406 11.4219L68.6732 11.863L69.0536 14.4219H71.6406V11.4219ZM69.5938 8.0625L68.1604 10.698L68.17 10.7032L68.1796 10.7083L69.5938 8.0625ZM65.1875 8.0625L66.5658 10.7272L66.5743 10.7227L66.5829 10.7182L65.1875 8.0625ZM62.7188 19.5L59.8083 20.2276L59.8103 20.2355L62.7188 19.5ZM63.7344 21.7969L61.2959 23.5444L61.3125 23.5675L61.3295 23.5903L63.7344 21.7969ZM69.5938 23.4688L68.8661 20.5583L68.8589 20.5601L68.8516 20.562L69.5938 23.4688ZM70.7969 23.0156L72.314 25.6037L72.3272 25.596L72.3404 25.5881L70.7969 23.0156ZM71.5156 22.4844L73.6369 24.6057L74.5156 23.727V22.4844H71.5156ZM71.5156 18.4531H74.5156V15.4531H71.5156V18.4531ZM67.2344 18.4531H64.2344V21.4531H67.2344V18.4531ZM67.2344 15.1094V12.1094H64.2344V15.1094H67.2344ZM73.2031 15.1094V24.125H79.2031V15.1094H73.2031ZM73.8939 22.21C73.7973 22.3265 73.5109 22.6053 72.8823 23.0303L76.2427 28.001C77.0933 27.4259 77.9007 26.7777 78.5124 26.04L73.8939 22.21ZM72.9065 23.0141C72.4807 23.2959 71.8165 23.6117 70.8317 23.9106L72.5746 29.6519C73.9231 29.2425 75.1651 28.7145 76.2185 28.0172L72.9065 23.0141ZM70.8317 23.9106C70.0282 24.1545 68.9279 24.3125 67.4688 24.3125V30.3125C69.3221 30.3125 71.0447 30.1163 72.5746 29.6519L70.8317 23.9106ZM67.4688 24.3125C66.3298 24.3125 65.3726 24.1276 64.559 23.805L62.3472 29.3825C63.9503 30.0182 65.6702 30.3125 67.4688 30.3125V24.3125ZM64.5797 23.8133C63.7691 23.4849 63.0933 23.019 62.5213 22.4062L58.135 26.5001C59.313 27.7622 60.7205 28.7235 62.3266 29.3742L64.5797 23.8133ZM62.5335 22.4193C61.9817 21.821 61.5134 21.0463 61.1631 20.0343L55.4932 21.997C56.0803 23.6933 56.9454 25.2103 58.1228 26.4869L62.5335 22.4193ZM61.1654 20.041C60.8245 19.0487 60.625 17.8304 60.625 16.3438H54.625C54.625 18.3571 54.8942 20.2534 55.4909 21.9903L61.1654 20.041ZM60.625 16.3438V14.9219H54.625V16.3438H60.625ZM60.625 14.9219C60.625 13.4228 60.8174 12.1906 61.1472 11.1856L55.4465 9.31438C54.8806 11.0386 54.625 12.921 54.625 14.9219H60.625ZM61.1407 11.2052C61.4868 10.1748 61.9467 9.39621 62.4799 8.80377L58.0201 4.78998C56.8658 6.07254 56.0236 7.59608 55.453 9.29481L61.1407 11.2052ZM62.4799 8.80377C63.0267 8.19621 63.6665 7.74148 64.4265 7.42255L62.1048 1.88995C60.5314 2.55018 59.1608 3.52255 58.0201 4.78998L62.4799 8.80377ZM64.4265 7.42255C65.1814 7.10575 66.0769 6.92188 67.1562 6.92188V0.921875C65.3814 0.921875 63.6832 1.22758 62.1048 1.88995L64.4265 7.42255ZM67.1562 6.92188C68.8361 6.92188 69.9535 7.19988 70.6721 7.56508L73.3904 2.21617C71.5674 1.2897 69.4347 0.921875 67.1562 0.921875V6.92188ZM70.6896 7.57391C71.4843 7.97127 72.001 8.47061 72.3505 9.06586L77.5245 6.02789C76.5407 4.35231 75.1198 3.08082 73.3729 2.20734L70.6896 7.57391ZM72.3671 9.09386C72.7939 9.80295 73.0894 10.6663 73.2046 11.7415L79.1704 11.1023C78.9731 9.26079 78.4353 7.5408 77.5079 5.99989L72.3671 9.09386ZM76.1875 8.42188H71.6406V14.4219H76.1875V8.42188ZM74.608 10.9808C74.4493 9.91286 74.1307 8.8787 73.5978 7.93321L68.3709 10.8793C68.4838 11.0796 68.6028 11.3892 68.6732 11.863L74.608 10.9808ZM73.5978 7.93321C72.9828 6.84195 72.0932 5.99676 71.0079 5.41671L68.1796 10.7083C68.3027 10.7741 68.3402 10.8247 68.3709 10.8793L73.5978 7.93321ZM71.0271 5.42705C69.852 4.78799 68.5395 4.57812 67.2812 4.57812V10.5781C67.9189 10.5781 68.148 10.6912 68.1604 10.698L71.0271 5.42705ZM67.2812 4.57812C66.0755 4.57812 64.8885 4.83068 63.7921 5.40677L66.5829 10.7182C66.7156 10.6485 66.9245 10.5781 67.2812 10.5781V4.57812ZM63.8092 5.39785C62.7208 5.96081 61.8442 6.77985 61.1731 7.76965L66.1394 11.1366C66.3017 10.8972 66.4458 10.7892 66.5658 10.7272L63.8092 5.39785ZM61.1731 7.76965C60.5103 8.74736 60.0694 9.86017 59.7869 11.0305L65.6194 12.4383C65.7744 11.7961 65.9689 11.3881 66.1394 11.1366L61.1731 7.76965ZM59.7869 11.0305C59.4993 12.2217 59.375 13.5191 59.375 14.8906H65.375C65.375 13.8663 65.4694 13.0596 65.6194 12.4383L59.7869 11.0305ZM59.375 14.8906V16.3438H65.375V14.8906H59.375ZM59.375 16.3438C59.375 17.7169 59.5068 19.0213 59.8083 20.2276L65.6292 18.7724C65.4724 18.1453 65.375 17.3456 65.375 16.3438H59.375ZM59.8103 20.2355C60.1122 21.4293 60.5879 22.5564 61.2959 23.5444L66.1728 20.0493C65.9851 19.7873 65.7837 19.3832 65.6272 18.7645L59.8103 20.2355ZM61.3295 23.5903C62.0706 24.5841 63.0157 25.3728 64.1486 25.9039L66.6952 20.4711C66.4947 20.3772 66.3148 20.2388 66.1393 20.0034L61.3295 23.5903ZM64.1486 25.9039C65.2862 26.4372 66.5123 26.6562 67.75 26.6562V20.6562C67.2169 20.6562 66.8908 20.5628 66.6952 20.4711L64.1486 25.9039ZM67.75 26.6562C68.6356 26.6562 69.5201 26.5838 70.3359 26.3755L68.8516 20.562C68.6882 20.6037 68.3436 20.6562 67.75 20.6562V26.6562ZM70.3214 26.3792C70.9809 26.2143 71.6791 25.976 72.314 25.6037L69.2797 20.4275C69.3036 20.4135 69.2873 20.4259 69.2122 20.4542C69.1385 20.482 69.0259 20.5184 68.8661 20.5583L70.3214 26.3792ZM72.3404 25.5881C72.7622 25.335 73.2297 25.013 73.6369 24.6057L69.3943 20.3631C69.4395 20.3178 69.4575 20.3077 69.4278 20.3297C69.4 20.3502 69.3446 20.3884 69.2534 20.4431L72.3404 25.5881ZM74.5156 22.4844V18.4531H68.5156V22.4844H74.5156ZM71.5156 15.4531H67.2344V21.4531H71.5156V15.4531ZM70.2344 18.4531V15.1094H64.2344V18.4531H70.2344ZM67.2344 18.1094H76.2031V12.1094H67.2344V18.1094Z" fill="#4FDAD7" mask="url(#path-1-outside-1_11_359)"/>
</svg>

