<svg width="28" height="28" viewBox="0 0 28 28" fill="none" xmlns="http://www.w3.org/2000/svg">
<path d="M0 4.86111C0 3.57186 0.512151 2.33542 1.42379 1.42379C2.33542 0.512151 3.57186 0 4.86111 0H9.13889C9.39674 0 9.64403 0.10243 9.82635 0.284757C10.0087 0.467084 10.1111 0.714373 10.1111 0.972222C10.1111 1.23007 10.0087 1.47736 9.82635 1.65969C9.64403 1.84201 9.39674 1.94444 9.13889 1.94444H4.86111C4.08756 1.94444 3.3457 2.25174 2.79872 2.79872C2.25174 3.3457 1.94444 4.08756 1.94444 4.86111V9.13889C1.94444 9.39674 1.84201 9.64403 1.65969 9.82635C1.47736 10.0087 1.23007 10.1111 0.972222 10.1111C0.714373 10.1111 0.467084 10.0087 0.284757 9.82635C0.10243 9.64403 0 9.39674 0 9.13889V4.86111ZM17.8889 0.972222C17.8889 0.435556 18.3244 0 18.8611 0H23.1389C24.4281 0 25.6646 0.512151 26.5762 1.42379C27.4879 2.33542 28 3.57186 28 4.86111V9.13889C28 9.39674 27.8976 9.64403 27.7152 9.82635C27.5329 10.0087 27.2856 10.1111 27.0278 10.1111C26.7699 10.1111 26.5226 10.0087 26.3403 9.82635C26.158 9.64403 26.0556 9.39674 26.0556 9.13889V4.86111C26.0556 4.08756 25.7483 3.3457 25.2013 2.79872C24.6543 2.25174 23.9124 1.94444 23.1389 1.94444H18.8611C18.3244 1.94444 17.8889 1.50889 17.8889 0.972222ZM0.972222 17.8889C1.50889 17.8889 1.94444 18.3244 1.94444 18.8611V23.1389C1.94444 23.9124 2.25174 24.6543 2.79872 25.2013C3.3457 25.7483 4.08756 26.0556 4.86111 26.0556H9.13889C9.39674 26.0556 9.64403 26.158 9.82635 26.3403C10.0087 26.5226 10.1111 26.7699 10.1111 27.0278C10.1111 27.2856 10.0087 27.5329 9.82635 27.7152C9.64403 27.8976 9.39674 28 9.13889 28H4.86111C3.57186 28 2.33542 27.4879 1.42379 26.5762C0.512151 25.6646 0 24.4281 0 23.1389V18.8611C0 18.3244 0.435556 17.8889 0.972222 17.8889ZM27.0278 17.8889C27.5644 17.8889 28 18.3244 28 18.8611V23.1389C28 24.4281 27.4879 25.6646 26.5762 26.5762C25.6646 27.4879 24.4281 28 23.1389 28H18.8611C18.6033 28 18.356 27.8976 18.1736 27.7152C17.9913 27.5329 17.8889 27.2856 17.8889 27.0278C17.8889 26.7699 17.9913 26.5226 18.1736 26.3403C18.356 26.158 18.6033 26.0556 18.8611 26.0556H23.1389C23.1716 26.0556 23.205 26.0556 23.2377 26.054C23.9936 26.0282 24.71 25.7098 25.2357 25.1659C25.7615 24.6221 26.0554 23.8953 26.0556 23.1389V18.8611C26.0556 18.3244 26.4911 17.8889 27.0278 17.8889ZM16.3333 27.0278C16.3333 27.0931 16.3349 27.1577 16.3403 27.2222H11.6581C11.6849 26.8749 11.6396 26.5259 11.5251 26.1969C11.4107 25.868 11.2294 25.5662 10.9928 25.3106C10.7562 25.055 10.4693 24.851 10.1501 24.7116C9.83097 24.5721 9.48642 24.5 9.13811 24.5H4.86033C4.48233 24.5 4.14011 24.346 3.89356 24.0971C3.947 23.0516 4.39994 22.0666 5.15883 21.3455C5.91772 20.6244 6.92458 20.2223 7.97145 20.2222H20.027C21.0739 20.2223 22.0807 20.6244 22.8396 21.3455C23.5985 22.0666 24.0515 23.0516 24.1049 24.0971C23.8583 24.346 23.5161 24.5 23.1381 24.5H18.8603C18.1901 24.5002 17.5473 24.7666 17.0734 25.2406C16.5995 25.7147 16.3333 26.3575 16.3333 27.0278ZM14 17.8889C15.6502 17.8889 17.2329 17.2333 18.3998 16.0664C19.5667 14.8995 20.2222 13.3169 20.2222 11.6667C20.2222 10.0164 19.5667 8.43378 18.3998 7.26689C17.2329 6.1 15.6502 5.44444 14 5.44444C12.3498 5.44444 10.7671 6.1 9.60022 7.26689C8.43333 8.43378 7.77778 10.0164 7.77778 11.6667C7.77778 13.3169 8.43333 14.8995 9.60022 16.0664C10.7671 17.2333 12.3498 17.8889 14 17.8889Z" fill="#ABB4E7"/>
</svg>
